# xmcd
#
# Track frame offsets:
# 150
# 13697
# 31409
# 47251
# 61876
# 74703
# 90754
# 104930
# 120017
# 136203
# 152542
# 167451
# 181853
# 195688
# 206179
# 216734
# 227065
# 235853
# 246465
# 257373
# 265706
# 276221
# 287163
# 296311
#
# Disc length: 4097 seconds
#
#
# Revision: 0
# Processed by: cddbd v1.5.1PL0 Copyright (c) Steve Scherf et al.
# Submitted via: FreeRIP 2.35 
#
DISCID=580fff18
DTITLE=Big Maybelle - Half Heaven Half Heartache
DYEAR=1900
DGENRE=Blues
TTITLE0=What More Can a Woman Do
TTITLE1=I Can't Give You Anything But Love
TTITLE2=Cry
TTITLE3=Tortured
TTITLE4=Candy
TTITLE5=How Deep is the Ocean?
TTITLE6=If
TTITLE7=Why Was I Born?
TTITLE8=I'll Close My Eyes
TTITLE9=I Still Care
TTITLE10=Everybody's Got a Home But Me
TTITLE11=Cold Cold Heart
TTITLE12=The Price You Have To Pay (Love Isn't Worth It)
TTITLE13=Nobody Knows the Trouble I've Seen
TTITLE14=Swing Low Sweet Chariot
TTITLE15=Yes Indeed!
TTITLE16=Old Time Religion
TTITLE17=Every Time I Feel the Spirit
TTITLE18=Joshua Fit the Battle of Jericho
TTITLE19=When the Saints Go Marching In
TTITLE20=Oh Lord
TTITLE21=Down By the Riverside
TTITLE22=Dry Bones
TTITLE23=He's Got the Whole World In His Hands
EXTD=The Gospell Soul of Big Maybelle\nWhat Can a Woman Do
EXTT0=
EXTT1=
EXTT2=
EXTT3=
EXTT4=
EXTT5=
EXTT6=
EXTT7=
EXTT8=
EXTT9=
EXTT10=
EXTT11=
EXTT12=
EXTT13=
EXTT14=
EXTT15=
EXTT16=
EXTT17=
EXTT18=
EXTT19=
EXTT20=
EXTT21=
EXTT22=
EXTT23=
PLAYORDER=
